<?xml version="1.0" encoding="UTF-8"?><svg id="Artwork" xmlns="http://www.w3.org/2000/svg" xmlns:xlink="http://www.w3.org/1999/xlink" viewBox="0 0 1920 1921.3"><defs><style>.cls-1{clip-path:url(#clippath);}.cls-2{fill-rule:evenodd;stroke:#7b6b48;stroke-width:2px;}.cls-2,.cls-3,.cls-4{stroke-miterlimit:10;}.cls-2,.cls-5{fill:#948056;}.cls-3{fill:#a69572;}.cls-3,.cls-4{stroke:#a69572;}.cls-4{fill:none;}.cls-6{fill:#f7f6ee;}.cls-6,.cls-5,.cls-7,.cls-8,.cls-9{stroke-width:0px;}.cls-7{fill:#dbd5c7;}.cls-8{fill:#fff;}.cls-9{fill:#00672f;}</style><clipPath id="clippath"><circle class="cls-4" cx="960" cy="961.3" r="695.82"/></clipPath></defs><g id="Background"><g id="Background-2"><path class="cls-6" d="M960,1862.01c-121.6,0-239.55-23.81-350.59-70.78-107.25-45.36-203.58-110.31-286.3-193.03-82.72-82.72-147.66-179.05-193.03-286.3-46.97-111.04-70.78-229-70.78-350.59s23.81-239.55,70.78-350.59c45.37-107.25,110.31-203.58,193.03-286.3,82.72-82.72,179.05-147.66,286.3-193.03,111.04-46.97,229-70.78,350.59-70.78s239.55,23.81,350.59,70.78c107.25,45.37,203.58,110.31,286.3,193.03,82.72,82.72,147.67,179.05,193.03,286.3,46.97,111.04,70.78,229,70.78,350.59s-23.81,239.55-70.78,350.59c-45.36,107.25-110.31,203.58-193.03,286.3-82.72,82.72-179.05,147.67-286.3,193.03-111.04,46.97-229,70.78-350.59,70.78Z"/><path class="cls-9" d="M960,63.42c121.22,0,238.8,23.74,349.49,70.56,53.2,22.5,104.52,50.35,152.52,82.78,47.55,32.12,92.26,69.01,132.89,109.64,40.63,40.63,77.52,85.34,109.64,132.89,32.43,48,60.28,99.31,82.78,152.52,46.82,110.69,70.56,228.28,70.56,349.49s-23.74,238.8-70.56,349.49c-22.5,53.2-50.35,104.52-82.78,152.52-32.12,47.55-69.01,92.26-109.64,132.89-40.63,40.63-85.34,77.52-132.89,109.64-48,32.43-99.31,60.28-152.52,82.78-110.69,46.82-228.28,70.56-349.49,70.56s-238.8-23.74-349.49-70.56c-53.2-22.5-104.52-50.35-152.52-82.78-47.55-32.12-92.26-69.01-132.89-109.64-40.63-40.63-77.52-85.34-109.64-132.89-32.43-48-60.28-99.31-82.78-152.52-46.82-110.69-70.56-228.28-70.56-349.49s23.74-238.8,70.56-349.49c22.5-53.2,50.35-104.52,82.78-152.52,32.12-47.55,69.01-92.26,109.64-132.89,40.63-40.63,85.34-77.52,132.89-109.64,48-32.43,99.31-60.28,152.52-82.78,110.69-46.82,228.28-70.56,349.49-70.56M960,57.77C460.99,57.77,56.47,462.3,56.47,961.3s404.52,903.53,903.53,903.53,903.53-404.52,903.53-903.53S1459.01,57.77,960,57.77h0Z"/></g><g id="Text"><g id="Rankings_Panel"><path class="cls-9" d="M407.25,1550.02c4.42,7.17,5.67,14.31,4.89,20.44-.87,7.19-3.22,16.19-6.32,27.9-1.82,6.75-2.55,10.41,3.13,16.26l-4.69,4.94-21.34-20.24c5.67-16.6,8.95-26.09,12.01-39.46,2.64-11.47,2.02-16.86-4.15-23.63l-22.3,23.51c-6.18,6.51-6.19,10.39.44,16.91l-4.69,4.94-33.15-31.45,4.69-4.94c7.35,6.74,10.75,6.53,17.27-.34l52.84-55.69c6.52-6.87,6.66-10.4-.46-17.38l4.8-5.06,34.48,32.71c17.6,16.7,23.95,34.63,7.71,51.75-13.49,14.22-30.51,10.91-44.71-1.65l-.46.48ZM436.05,1505.19l-8.32-7.89-30.76,32.43,7.96,7.55c9.76,9.26,18.86,11.02,30.98-1.76,11.55-12.18,10.75-20.26.14-30.33Z"/><path class="cls-9" d="M487.96,1639.68l-29.87-21.37-13.2,10.17c-1.8,1.37-2.9,2.62-3.58,3.57-2.51,3.51-.16,6.22,6.13,11.13l-3.96,5.54-29.46-21.08,3.96-5.54c6.47,3.81,9.66,3.64,17.93-2.5l80.97-59.76,14.73,10.54-29.69,96.04c-2.63,8.54-3.14,12.67,2.69,17.66l-3.96,5.54-35.95-25.72,3.97-5.54c6.41,4.18,9.81,4.57,12.13,1.32.77-1.08,1.47-2.63,1.94-4.13l5.23-15.87ZM466.52,1611.67l24.87,17.79,8.62-26.32c3.89-11.72,7.26-20.14,9-24l-.68-.48c-3.75,3.24-9.69,8.4-20.05,16.31l-21.76,16.71Z"/><path class="cls-9" d="M630.68,1650.58c4.38-8.4,3.39-11.91-5.23-16.59l3.22-6.19,32.28,16.81-3.22,6.19c-8.33-4.15-11.47-2.79-15.85,5.61l-44.22,84.89-13.71-7.14-6.23-76.88c-1.3-15.48-.54-25.58-.25-29.73l-.74-.38c-1.4,3.77-5.13,13.81-11.2,25.46l-20.73,39.79c-4.38,8.4-3.46,11.69,5.3,16.44l-3.15,6.04-33.31-17.35,3.15-6.04c8.92,4.46,12.13,3.32,16.51-5.08l35.46-68.09c4.38-8.4,3.54-11.83-5.23-16.59l3.22-6.19,29.48,15.35,5.64,72.63c.66,9.52.12,19.92-.64,25.33l.74.38c1.41-4.14,6.43-15.95,12.04-26.71l16.66-31.98Z"/><path class="cls-9" d="M666.21,1666.61c3.17-8.93,1.86-12.21-7.48-15.7l2.33-6.58,43.38,15.39-2.33,6.58c-9.45-3.18-12.53-1.45-15.7,7.48l-25.66,72.35c-3.17,8.93-1.81,12.05,7.53,15.54l-2.28,6.42-43.38-15.39,2.28-6.42c9.45,3.18,12.48,1.6,15.64-7.32l25.66-72.35ZM696.78,1708.66l13.37,59.22c1.7,7.13,3.71,9.42,10.9,12.51l-2.28,6.42-28.03-9.94-14.22-67.28,42.17-25.95c2.92-1.78,4.37-3.38,4.87-4.79,1-2.82-1.11-5.33-5.91-7.21l2.28-6.42,34.14,12.11-2.28,6.42c-7.38-1.56-12.04.14-23.51,6.65l-31.51,18.26Z"/><path class="cls-9" d="M766.22,1698.9c2.22-9.21.58-12.34-9.08-14.83l1.63-6.78,44.75,10.78-1.63,6.78c-9.73-2.17-12.62-.13-14.83,9.08l-17.97,74.63c-2.22,9.21-.54,12.18,9.11,14.67l-1.59,6.62-44.75-10.78,1.59-6.62c9.73,2.17,12.58.29,14.79-8.91l17.97-74.63Z"/><path class="cls-9" d="M884.6,1719.86c1.24-9.39-.89-12.35-10.59-13.8l.91-6.92,36.08,4.75-.91,6.92c-9.25-1.05-11.74,1.3-12.97,10.69l-12.5,94.89-15.32-2.02-32.17-70.1c-6.52-14.1-9.26-23.85-10.41-27.85l-.82-.11c-.03,4.02-.1,14.74-1.81,27.75l-5.86,44.48c-1.24,9.39.74,12.17,10.61,13.63l-.89,6.75-37.23-4.9.89-6.75c9.91,1.14,12.54-1.03,13.77-10.42l10.02-76.11c1.24-9.39-.72-12.33-10.59-13.8l.91-6.92,32.95,4.34,30.15,66.32c3.88,8.72,6.93,18.68,8.07,24.02l.82.11c-.09-4.37.59-17.19,2.17-29.21l4.71-35.75Z"/><path class="cls-9" d="M977.65,1779.71c-.15-9.47-2.35-11.93-14.15-11.9l-.11-6.98,46.19-.75.11,6.98c-8.47.3-10.76,2.83-10.6,12.3l.49,30.4c-9.53,6.8-25.26,10.22-38.72,10.43-31.9.52-51.68-20.27-52.28-57.48-.65-39.87,20.45-60.99,51.18-61.49,17.11-.28,28.97,3.19,36.19,7.89l.33,20.6-15.12.25c-2.7-12.59-7.12-18.99-22.24-18.75-19.6.32-27.3,17.89-26.76,51.12.55,34.22,9.1,48.54,29.53,48.21,7.48-.12,12.77-1.7,16.38-4.59l-.43-26.25Z"/><path class="cls-9" d="M1020.79,1809.4l-2.61-21.28,14.51-1.78c3.82,14.77,10.42,20.82,25.27,19,15.01-1.84,20.86-10.09,19.34-22.46-1.48-12.04-7.32-16.01-21.85-18.41l-11.95-1.88c-17.58-2.7-28.21-10.27-30.42-28.24-2.61-21.28,10.68-35.8,34.26-38.69,16.99-2.08,27.62,1.3,33.67,4.24l2.49,20.29-14.02,1.72c-3.25-11.49-8.63-18.53-23.15-16.75-11.88,1.46-17.66,8.86-16.33,19.75,1.27,10.39,6.79,14.4,20.1,16.45l11.76,1.74c17.89,2.49,31.12,10.75,33.49,30.04,2.79,22.76-10.76,37.82-38.14,41.18-18.14,2.23-29.16-1.61-36.43-4.91Z"/><path class="cls-9" d="M1182.84,1767.85c2.72,9.25,6.02,11.05,17.23,7.92l1.92,6.54-46.07,13.56-1.92-6.54c9.52-2.97,11.05-6.02,8.37-15.11l-21.68-73.64c-2.67-9.09-5.66-10.98-15.27-8.32l-1.97-6.7,46.07-13.56c27.9-8.21,43.9.24,49.95,20.81,5.58,18.97-.94,36.82-28.36,44.9l-15.78,4.65,7.51,25.5ZM1169.52,1682.57l-10.84,3.19,13.75,46.7,12.75-3.75c14.03-4.13,17.71-11.62,12.78-28.36-5.21-17.69-11.87-22.66-28.45-17.78Z"/><path class="cls-9" d="M1287.81,1715.43l-33.84,14.25,1.75,16.57c.23,2.25.72,3.84,1.17,4.92,1.68,3.98,5.22,3.39,12.69.61l2.64,6.28-33.39,14.05-2.64-6.28c6.63-3.51,8.16-6.32,7.26-16.58l-8.49-100.27,16.69-7.03,66.25,75.59c5.89,6.72,9.15,9.31,16.45,6.96l2.64,6.28-40.74,17.15-2.64-6.28c6.92-3.27,9.03-5.96,7.48-9.64-.52-1.23-1.47-2.63-2.51-3.81l-10.78-12.77ZM1252.73,1719.02l28.18-11.86-17.91-21.13c-7.95-9.46-13.35-16.73-15.73-20.24l-.77.32c.8,4.89,2.08,12.65,3.39,25.61l2.83,27.29Z"/><path class="cls-9" d="M1371.79,1599.54c-4.87-8.12-8.37-9.12-16.87-4.23l-3.59-5.99,31.22-18.7,3.59,5.99c-7.9,4.92-8.38,8.32-3.52,16.44l49.19,82.1-13.26,7.94-68.77-34.92c-13.87-6.99-22.08-12.92-25.47-15.35l-.71.43c2.48,3.17,9.08,11.6,15.83,22.87l23.06,38.49c4.87,8.12,8.14,9.07,16.78,4.09l3.5,5.84-32.21,19.3-3.5-5.84c8.47-5.27,9.18-8.6,4.31-16.73l-39.45-65.85c-4.87-8.12-8.23-9.21-16.87-4.23l-3.59-5.99,28.51-17.08,64.84,33.21c8.46,4.42,17.03,10.33,21.25,13.81l.71-.43c-2.79-3.37-10.22-13.83-16.46-24.23l-18.53-30.93Z"/><path class="cls-9" d="M1449.82,1654.48c7.71-6.32,7.99-9.72,2.1-17.15l-47.68-60.17c-5.88-7.42-9.36-8.06-17.27-2l-4.34-5.47,63.42-50.26,17.95,19.7-7.81,6.19c-10.71-7.63-14.78-9.28-23.24-2.57l-17.58,13.93,25.39,32.04,9.9-7.84c8.07-6.4,8.97-10.08,3.61-17.92l7.03-5.57,20.74,26.18-7.03,5.57c-6.09-6.62-10.06-7.08-18.14-.68l-10.03,7.95,27.56,34.77,18.75-14.86c9.25-7.33,9.74-12.59,1.18-25.53l8.07-6.4,18.06,22.79-66.42,52.64-4.23-5.34Z"/><path class="cls-9" d="M1549.04,1565.99l13.65-13.61c8.12-8.1,8.13-14.91-.67-28.2l7.29-7.27,19.59,23.17-56.82,56.68-4.81-4.82c6.94-7.16,6.83-10.57.14-17.27l-54.21-54.35c-6.69-6.71-10.21-6.95-17.39-.02l-4.93-4.94,32.94-32.86,4.93,4.94c-7.18,7.39-6.95,11.15-.26,17.86l60.55,60.71Z"/></g><g id="Golf_Course"><path class="cls-9" d="M538.01,301.39c-5.28-7.87-8.46-8.73-18.35-2.3l-3.89-5.8,38.36-25.73,3.89,5.8c-6.95,4.86-7.49,8.22-2.21,16.09l16.94,25.25c-4.3,10.89-15.65,22.3-26.83,29.8-26.49,17.77-54.4,11.08-75.13-19.83-22.22-33.12-15.98-62.31,9.54-79.43,14.21-9.53,26.05-13.07,34.67-13.05l11.48,17.11-12.56,8.42c-9.11-9.1-16.3-12.07-28.86-3.65-16.28,10.92-13.19,29.85,5.32,57.45,19.07,28.43,34.02,35.8,50.99,24.42,6.21-4.17,9.79-8.37,11.25-12.75l-14.62-21.8Z"/><path class="cls-9" d="M561.82,263.67c-17.48-36.03-7.8-62.89,19.11-75.95,29.9-14.51,56.04-.22,71.92,32.52,15.81,32.59,8.64,60.45-19.61,74.16-29.75,14.43-55.83,1.41-71.42-30.73ZM582.17,251.95c15.38,31.69,29.59,42.71,47.08,34.23,14.65-7.11,18.69-22,2.52-55.34-15.45-31.84-29.14-42.56-46.49-34.15-16.74,8.12-18.13,24.31-3.11,55.25Z"/><path class="cls-9" d="M705.31,251.72l18.24-6.24c10.85-3.71,13.85-9.83,11.77-25.63l9.75-3.34,7.44,29.42-75.93,25.99-2.21-6.45c9.38-3.39,10.77-6.5,7.7-15.46l-24.86-72.63c-3.07-8.96-6.13-10.72-15.62-7.65l-2.26-6.6,44.02-15.07,2.26,6.6c-9.69,3.49-11.13,6.97-8.07,15.93l27.77,81.12Z"/><path class="cls-9" d="M753.96,238.32c9.7-2.29,11.44-5.23,9.42-14.48l-16.41-74.99c-2.03-9.25-4.87-11.35-14.64-9.38l-1.49-6.82,79.21-17.34,7.74,26.03-9.58,2.1c-7.17-12.55-9.95-15.17-20.83-12.79l-21.43,4.69,9.1,41.55,12.34-2.7c10.06-2.2,12.49-5.11,11.11-14.51l8.76-1.92,7.18,32.79-8.76,1.92c-2.57-8.62-6-11.1-16.07-8.9l-12.5,2.74,7.14,32.63c2.06,9.41,5.23,11.44,16.62,9.12l1.46,6.66-46.91,10.27-1.46-6.66Z"/><path class="cls-9" d="M872.84,165.83c-1.99-40.33,17.92-61.77,48.62-63.29,17.09-.84,27.38,1.98,34.75,6.27l1.02,20.75-15.1.74c-3.44-12.47-8.06-18.4-20.67-17.78-17.09.84-26.8,13.3-24.92,51.3,1.97,40,13.54,48.58,30.8,47.73,13.11-.65,17.81-6.53,19.48-19.93l14.27-.7.98,19.92c-6.08,4.96-18.15,9.71-34.75,10.53-34.35,1.69-52.68-19.03-54.48-55.54Z"/><path class="cls-9" d="M968.07,160.43c3.1-39.92,25.02-58.22,54.84-55.91,33.13,2.57,48.48,28.1,45.66,64.38-2.81,36.11-23.06,56.54-54.37,54.11-32.97-2.56-48.9-26.96-46.14-62.58ZM991.55,160.59c-2.73,35.12,3.98,51.81,23.36,53.31,16.24,1.26,27.24-9.55,30.11-46.49,2.74-35.29-3.67-51.45-22.89-52.94-18.55-1.44-27.92,11.83-30.58,46.12Z"/><path class="cls-9" d="M1161.41,148.15c2-9.26.12-12.38-9.91-14.72l1.47-6.82,35.9,7.74-1.47,6.82c-9.13-1.8-11.8.34-13.8,9.6l-12.3,57.01c-5.54,25.66-20.97,35.76-47.94,29.95-28.1-6.06-38.5-20.88-33-46.39l12.51-57.99c2-9.26.28-12.35-8.94-14.51l1.47-6.82,44.99,9.71-1.47,6.82c-10.27-2.04-13.1.06-15.1,9.32l-12.09,56.04c-4.31,19.98.34,29.14,18.05,32.96,15.92,3.43,25.13-2.23,29.37-21.88l12.26-56.85Z"/><path class="cls-9" d="M1234.58,216.7c6.91,4.82,10.9,10.87,12.62,16.8,2.07,6.94,3.5,16.13,5.32,28.11,1.02,6.91,1.81,10.56,9.35,13.66l-2.33,6.4-27.63-10.07c-1.41-17.49-2.18-27.5-4.7-40.97-2.15-11.57-4.86-16.27-13.22-20.02l-11.09,30.44c-3.07,8.43-1.54,11.99,7.15,15.34l-2.33,6.4-42.93-15.64,2.33-6.4c9.42,3.26,12.46,1.71,15.7-7.19l26.28-72.13c3.24-8.9,1.97-12.19-7.34-15.76l2.39-6.56,44.65,16.27c22.79,8.3,35.76,22.22,27.69,44.39-6.71,18.42-23.64,22.16-41.66,16.3l-.23.62ZM1243.13,164.11l-10.77-3.92-15.3,42,10.3,3.75c12.65,4.61,21.69,2.6,27.72-13.95,5.74-15.77,1.79-22.87-11.95-27.87Z"/><path class="cls-9" d="M1261.9,275.67l9.78-19.07,13.01,6.67c-5.13,14.36-3.06,23.08,10.24,29.91,13.45,6.9,22.93,3.36,28.62-7.73,5.54-10.79,2.93-17.36-7.74-27.5l-8.83-8.27c-13.03-12.1-17.59-24.33-9.32-40.45,9.78-19.07,28.93-23.63,50.07-12.79,15.23,7.81,22.12,16.58,25.48,22.41l-9.33,18.19-12.57-6.45c3.76-11.33,3.25-20.18-9.76-26.85-10.65-5.46-19.59-2.58-24.6,7.18-4.78,9.31-2.47,15.73,7.4,24.9l8.76,8.04c13.4,12.1,19.72,26.36,10.84,43.66-10.47,20.4-30.14,25.25-54.68,12.66-16.26-8.34-23.23-17.7-27.39-24.51Z"/><path class="cls-9" d="M1332.19,312.08c8.41,5.36,11.73,4.56,16.95-3.34l42.32-64.05c5.22-7.9,4.75-11.4-3.48-17.04l3.85-5.82,67.51,44.61-13.13,23.19-8.32-5.5c3.91-12.55,4.22-16.93-4.79-22.89l-18.71-12.37-22.54,34.1,10.54,6.96c8.6,5.68,12.37,5.39,18.15-2.15l7.49,4.95-18.41,27.86-7.49-4.95c4.39-7.85,3.59-11.77-5-17.45l-10.67-7.05-24.46,37.01,19.96,13.19c9.84,6.5,15,5.33,24.63-6.83l8.6,5.68-16.03,24.26-70.7-46.72,3.76-5.68Z"/></g></g></g><g id="Golf_Ball"><circle id="Background-3" class="cls-7" cx="960" cy="961.3" r="695.82"/><g id="Dimple_Pattern"><g class="cls-1"><path class="cls-3" d="M1193.54,1361.68c6.76,2.54,14.17,3.79,20.38,7.25,18.58,10.34,38.07,11.11,58.46,8.2,13.21-1.88,26.41-2.18,31.21,20.65,19.31-22.92,40.18-21.83,62.15-14.63,3.06,1,6.66.5,10.01.5,16.2-.01,26.07-7.64,25.75-19.83-.35-13.42-14.89-27.52-28.5-24.1-17.65,4.43-34.97,11.34-51.3,19.45-12.83,6.37-19.98,6.41-25.86-8.2-3.65-9.06-10.4-17.09-16.78-24.74-2.94-3.53-8.99-7.86-12.47-7.03-25.86,6.21-51.62,13.05-76.93,21.18-4.9,1.57-7.69,9.68-11.46,14.77,5.11,2.19,10.14,4.58,15.34,6.53Z"/><path class="cls-3" d="M1058.48,1328.47c10.19,4.63,20.79,8.91,31.67,11.31,12.44,2.75,25.43,4.97,38.05,4.42,12.03-.53,24.19-4.04,35.66-8.06,4.34-1.52,10.21-8.53,9.73-12.33-2.89-22.99-34.73-43.44-58.51-38.2-11.46,2.24-22.83,5.23-34.39,6.55-16.38,1.87-23.43,13.84-29.69,26.31-.88,1.76,4,8.41,7.49,9.99Z"/><path class="cls-3" d="M534.77,963.75c12.26,8.52,22.65,19.82,35.16,27.89,7.2,4.64,20.5,9.88,24.77,6.62,6.31-4.82,9.48-16.92,9.62-26,.33-20.76-40.04-54.1-62.6-54.18-7.73,7.12-18.57,12.88-22.41,21.69-5.14,11.79,6.45,17.71,15.46,23.97Z"/><path class="cls-3" d="M700.47,1129.87c28.28,10.79,36.52,38.87,53.22,59.59,5.55,6.88,11.8,13.18,17.74,19.75,3.91-7.57,9.52-14.75,11.39-22.8,5.31-22.75-8.62-39.8-21.19-55.58-16.99-21.34-30.31-24.96-60.5-21.21-1.33,1.15-7.56,4.11-7.59,7.12-.04,4.5,3.26,11.73,6.92,13.12Z"/><path class="cls-3" d="M938.51,1274.99c14.45,2.06,29.19,2.07,43.8,3.08,9.39.65,18.75,1.75,28.15,2.23,6.18.31,12.4-.13,18.6-.24-1.24-5.89-.92-12.79-3.98-17.49-13.77-21.13-31.1-35.55-53.29-26.54-19.26,3.86-35.07,2.51-41.49,19.9-3.47,9.38-2.95,17.47,8.21,19.06Z"/><path class="cls-3" d="M811.71,1200.43c6.31.78,13.31,3.73,18.79,1.96,22.84-7.38,39.48,1.31,46.25,25.55,2.69,9.64,4.7,19.64,8.82,28.65,1.85,4.06,8.61,8.95,12.22,8.3,3.79-.68,8.84-7.3,9.28-11.73,3.65-36.66-23.71-84.5-75.48-78.38-1.85.69-9.5,1.23-12.71,5.29-4.22,5.34-4.94,13.44-7.17,20.35Z"/><path class="cls-3" d="M693.89,1004.25c9.69,8.82,18.73,18.45,29.1,26.35,5.08,3.87,12.54,4.61,18.92,6.77,1.11-4.35,2.21-8.7,2.49-9.82-5.89-28.77-19.56-47.92-43.04-57.7-7.8-3.25-18.52.49-27.9,1.04,3.38,8.29,6.19,16.89,10.4,24.74,1.94,3.62,6.74,5.63,10.02,8.62Z"/><path class="cls-3" d="M412.13,822.33c16.36.08,27.1,7.09,35.43,20.27,10.64-17.4,9.7-40.17-1.51-53.57-13.37-15.98-44.73-10.72-51.91,8.69-3.94,10.66,4.48,24.54,17.99,24.61Z"/><path class="cls-3" d="M1255.61,1232.38c6.42,1.15,13.71-2.53,20.6-4.03-2.48-7.86-2.63-19.67-7.91-22.78-11.59-6.83-25.78-9.26-38.88-13.48-11.22,6.55-19.34,11.29-27.46,16.02,7.4,4.54,14.44,9.88,22.29,13.41,10.08,4.54,20.58,8.93,31.35,10.86Z"/><path class="cls-3" d="M521.94,824.78c8.9,6.12,19.72,9.77,30.12,13.3,11.77,4.01,15.3-3.79,14.83-13.33-.67-13.57-23.93-31.99-41.53-29.74-2.3,2.25-10.1,6.41-11.13,11.85-1.04,5.48,2.96,14.65,7.71,17.92Z"/><path class="cls-3" d="M1394.35,1254c1.08-4.94-.36-13.31-3.88-15.76-6.93-4.8-16.79-10.27-24.02-8.74-15.96,3.37-31.04,10.9-47.1,16.98,22.47,4.43,41.75,8.68,61.22,11.75,4.52.71,13.26-1.82,13.78-4.23Z"/><path class="cls-3" d="M1124.53,1172.24c-3.09-21.14-9.06-26.79-29.46-24.33-11.08,1.34-21.58,7.44-32.35,11.39,10.85,4.91,21.31,11.46,32.69,14.21,8.67,2.1,18.5-.62,29.12-1.27Z"/><path class="cls-3" d="M1441.15,1276.11c12.88-9.52,25.71-17.59,42.69-16.78,3.14.15,6.49-4.03,9.74-6.22-2.95-3.5-5.83-9.88-8.86-9.96-8.74-.22-18.89-.21-26.03,3.93-14.29,8.29-26.95,19.39-40.29,29.33,1.23,2.32,2.47,4.63,3.7,6.95,6.42-2.33,13.8-3.36,19.06-7.25Z"/><path class="cls-3" d="M368.81,714.88c11.99-17.06,15.14-32.35,10.47-48.8-1.07-3.78-4.88-6.78-7.42-10.13-3.57,2.93-8.87,5.14-10.43,8.9-6.93,16.76-1.98,32.18,7.38,50.03Z"/><path class="cls-3" d="M1522.17,1281.17c14.79-6.63,29.87-12.72,44.18-20.27,3.48-1.83,4.43-8.44,6.55-12.85-5.02-.53-10.66-2.8-14.96-1.29-16.12,5.67-31.45,13-38.9,29.76,1.05,1.55,2.09,3.1,3.14,4.65Z"/><path class="cls-3" d="M869.14,1086.62c7.6-18.57.57-42.19-11.7-48.29-3.74-1.86-9.17-.32-13.83-.34.36,4.09-.59,8.95,1.31,12.12,6.9,11.51,14.76,22.44,24.22,36.52Z"/><path class="cls-3" d="M699.46,865.68c-.18-4.7,1.05-10.07-.8-13.97-7.39-15.57-25.41-21.41-39.43-11.31,9.51,9.21,17.29,17.86,26.33,24.9,2.95,2.29,9.17.38,13.9.39Z"/><path class="cls-3" d="M443.48,676.63c-9.55-12.55-18.43-2.72-30.11-.39,12.01,12.68,21.78,22.99,32.09,33.87,8.2-11.07,6.58-22.24-1.98-33.48Z"/><path class="cls-3" d="M956.91,1101.58c.25-2.22.5-4.44.75-6.66-6.89-1.28-13.76-2.71-20.71-3.46-.38-.04-1.36,5.58-2.06,8.56,7.34.52,14.68,1.04,22.02,1.56Z"/><path class="cls-3" d="M1725.32,955.79c2.9-195.13-70.37-379.71-206.31-519.74-135.94-140.03-318.26-218.73-513.39-221.62-195.13-2.9-379.71,70.37-519.74,206.31-140.03,135.94-218.73,318.26-221.62,513.39-2.9,195.13,70.37,379.71,206.31,519.74,135.94,140.03,318.26,218.73,513.39,221.62,195.13,2.9,379.71-70.37,519.74-206.31,140.03-135.94,218.73-318.26,221.62-513.39ZM306.48,813.04c1.81,19.26,1.61,38.29-8.28,56.24,2.02-18.93,4.77-37.69,8.28-56.24ZM324.69,800.68c20.66,8.89,27.06,18.21,29.61,44.93,2.26,23.67-3.69,43.98-28.22,56.31-21.22-34.3-12.49-67.47-1.38-101.24ZM774.24,1459.87c-2.08,1.88-5.73,7.96-10.45,8.94-18.64,3.88-54.19-13.51-63.71-30.34-1.65-2.91-2.3-7.48-1.18-10.43.67-1.75,5.72-2.63,8.76-2.54,9.41.27,18.82,1.02,28.2,1.91,17.56,1.66,36.5,15.67,38.37,32.47ZM833.2,1382.23c14.08-1.21,27.81-6.2,41.89-7.68,6.72-.71,18.28.81,20.09,4.77,7.62,16.73,17.11,27.19,38.11,19-7.71,29.4-24.98,37.23-49.16,34.71-9.37-.97-18.94.22-28.39-.25-16.81-.84-29.66-8.82-38.01-23.38-9.76-17.02-4.13-25.48,15.47-27.17ZM776.01,1374.42c-4.39-.55-8.9-.19-13.36-.09-34.89.8-62.15-11.06-76.25-45.34-2.32-5.64-5.48-10.96-8.44-16.32-6.72-12.17-3.48-22.12,7.28-32.44,7.34,19.79,22.49,17.49,37.72,15.41,22.81-3.1,30.32,1.52,37.73,22.71,8.96,25.61,20.15,34.43,43.77,34.46-3.87,19.59-9.76,23.94-28.46,21.6ZM644.19,1372.1c5.98,6.72,3.88,15.57-8.28,15.42-22.48-.27-55.49-29.89-58.35-54.22.77-1.41,2.01-6.83,4.34-7.34,5.03-1.12,12.46-1.81,15.67,1.01,16.24,14.28,32.27,29,46.62,45.13ZM645.76,1291.28c-36.39-1.1-63.18-41.96-48.83-78.16,7.15,4.47,12.67,10.01,19.16,11.59,25.54,6.23,32.84,28.62,42.66,47.91,5.67,11.14-1.29,19.01-12.99,18.66ZM548.87,1279.94c-6.13.74-13.48,4.03-18.18,1.78-21.68-10.37-31.56-30.44-40.13-55.12,2.53-4.05,6.12-9.78,9.71-15.51,5.35,3.99,11.84,7.09,15.83,12.15,9.89,12.55,19.1,25.7,27.62,39.22,3.12,4.95,3.52,11.6,5.16,17.48ZM616.13,1186.94c-19.65,12.4-36.6,11.32-54.91-3.44-8.23-6.63-16.55-13.35-23.68-21.09-5.44-5.9-9.07-13.46-13.85-20.81,2.82-15.09,4.6-29.49,8.52-43.27,1.54-5.42,7.48-12.76,12.13-13.33,5.83-.71,16.48,3.26,17.96,7.61,6.49,19.11,24.42,26.28,36.63,39.23,8.3,8.8,16.94,17.6,23.44,27.68,6.46,10.02,4.62,20.54-6.25,27.4ZM485.22,1143.65c2.55,4.54.81,15-2.94,18.58-3.68,3.51-14.11,4.47-18.64,1.72-16.19-9.83-28.81-23.26-29.31-42.05-1.12-4.03-2.58-6.36-2.17-8.3,1.58-7.65,3.74-15.17,5.68-22.74,6.39,3.92,14.34,6.56,18.86,12.02,10.56,12.77,20.42,26.37,28.53,40.77ZM394.11,1140.18c-18.96-4.78-27.54-20.75-20.04-36.48,11.08,9.58,22.44,18.02,20.04,36.48ZM415.87,1041.49c-.46-.32-1.02-.59-1.32-1.03-9.53-14.07-19.04-28.16-27.7-40.99,2.22-13.55,3.12-23.52,5.69-33.05,1.6-5.95,5.71-11.22,8.69-16.8,6,4.29,14.1,7.33,17.57,13.14,7.49,12.55,15.77,21.63,30.75,25.9,13.58,3.88,20.64,21.42,15.43,31.09-8.52,15.81-38.46,29.06-49.11,21.73ZM365.22,996.62c5.46,12.96-4.84,21.31-16.73,28.66-16.79-17.82-20.28-39.4-19.92-61.87.04-2.29,11.1-6.82,11.43-6.34,9.04,12.79,19.22,25.31,25.22,39.55ZM304.78,987.11c-1.55.24-3.1.48-4.66.71-1.46-10.23-2.92-20.46-4.37-30.69,1.56-.22,3.11-.44,4.67-.65,1.46,10.21,2.91,20.42,4.37,30.63ZM1011.18,1433.48c6.02.46,13.09-.92,17.8,1.81,6.62,3.83,14.07,9.9,16.16,16.58,1.29,4.11-5.48,13.94-10.82,16.37-22.34,10.15-46.18,14.37-68.79,1.94-7.37-4.05-11.83-14.18-16.15-22.31-.81-1.52,5.29-9.7,8.38-9.81,17.72-.63,35.48.25,53.24.61.07-1.73.13-3.46.2-5.19ZM901.96,1498.16c7.13,1.42,13.18,8.26,19.71,12.68-.8,2.81-1.61,5.61-2.41,8.42-16.48.46-33,1.78-49.39.81-4.37-.26-8.33-7.52-12.47-11.56,4.43-3.33,8.51-8.74,13.36-9.56,10.22-1.73,21.2-2.78,31.2-.79ZM1079.77,1469.58c23.73,3.19,44.59,5.7,65.26,9.32,1.75.31,4.54,9.74,2.85,12.19-13.42,19.53-62.64,17.55-74.54-2.46-5.5-9.25-1.24-18.03,6.43-19.06ZM1196.07,1487.07c14.65,2.55,27.99,3.83,40.65,7.46,8.38,2.4,11.01,9.75,4.05,16.89-8.07,8.28-39.91,10.56-48.71,3.01-4.61-3.95-9.97-10.66-9.58-15.71.31-4.14,8.62-7.68,13.6-11.66ZM1308.49,1491.81c7.01-3.04,15.5-5.58,22.69-4.35,5.14.88,9.16,8.26,13.69,12.73-5.26,4.5-10.07,9.75-15.91,13.29-5.57,3.38-12.22,4.99-20.44,8.17-3.57-.91-8.63-2.21-13.69-3.5,1.6-4.88,2.67-10.01,4.95-14.55,2.2-4.39,4.8-10.1,8.71-11.79ZM1521.9,1406.6c2.39-3.96,5.19-7.24,8.64-9.96-2.84,3.35-5.74,6.66-8.64,9.96ZM1471.37,1425.84c-1.57-5.18-2.38-11.94-.26-16.67,10.76-23.96,38.57-26.44,55.85-42.55,2.05-1.91,8.13.49,15.47,1.18-14.97,27.17-32.79,46.31-57.66,58.08-3.84,1.82-12.98,1.3-13.39-.05ZM1420.82,1487.76c-6.91,5.4-14.85,9.48-22.77,14.34-3.36-1.56-7.9-2.28-8.56-4.28-1.01-3.05-.62-8.56,1.44-10.26,6.78-5.56,14.2-10.78,22.19-14.24,3.23-1.4,8.58,2.09,12.96,3.36-1.69,3.78-2.38,8.82-5.26,11.07ZM1452.64,1466.42c9.94-6.74,19.87-13.48,29.81-20.22.29.34.59.67.88,1.01-.17.16-.33.33-.5.5-8.55,8.3-17.28,16.36-26.17,24.17-1.34-1.82-2.68-3.63-4.02-5.45ZM1005.18,244.37c187.14,2.78,361.99,78.26,492.35,212.54,130.36,134.29,200.63,311.3,197.86,498.44-1.64,110.37-28.58,216.46-77.95,311.68.78-3.41.01-8.02-1.86-10.7-1.13-1.62-7.94-1.45-10.31.37-8.55,6.55-16.31,14.14-24.37,21.33,13.01,3.61,24.67,5.65,31.86-2.2-12.37,23.04-26.03,45.45-41.02,67.08-.33.22-.67.43-.99.65-7,4.92-13.2,7.14-16.61-3.67-2.97-9.42-8.83-8.5-15.65-4.45-21.11,12.54-42.88,24.09-55.56,46.84-16.82,30.16-44.08,48.52-74.32,62.79-4.95,2.33-14.43,2.56-17.46-.52-3.5-3.55-4.19-12.47-2.53-17.97,3.67-12.15,8.07-24.48,23.63-27.62,5.01-1.01,8.94-6.59,13.85-9.13,13.54-7.02,27.36-13.49,41.01-20.28,6.08-3.02,14.64-4.91,17.25-9.86,2.23-4.22-.66-15.46-4.51-17.5-5.04-2.68-13.67-.57-20.04,1.58-33.66,11.34-56.51,35.41-73.11,65.63-6.89,12.55-15.13,21.01-29.43,24.89-12.29,3.34-24.45,8.65-35.36,15.24-13.47,8.14-23.01,4.2-29.22-7.73-9.64-18.5-23.39-20.92-41.3-14.42-8.92,3.24-18.29,5.2-27.38,8.01-26.78,8.27-39.26,3.78-50.78-21.96-5.25-11.72-11.77-14.8-23.26-12.34-19.12,4.1-38.36,7.68-57.51,11.69-10.29,2.16-18.16.36-24.3-9.45-7.66-12.23-16.3-23.93-25.53-35.02-2.65-3.19-8.99-5.31-13.27-4.8-19.98,2.39-39.77,6.26-59.73,8.86-20.62,2.69-32.18-5.12-42.74-23.3-11.12-19.16-24.34-36.11-51.1-32.91-20.88,2.5-42.83-.55-61.18,17.24-.24-28.27-14.99-48.03-28.93-67.49-10.01-13.98-26.5-20.73-43.17-16.38-29.3,7.65-50.04,3.08-65.55-26.28-9.38-17.76-26.73-31.31-42.47-48.95,3.04-6.77,9.11-18.42,13.56-30.65,8-21.99,4.9-41.72-14.24-57.32-4.32-3.52-8.27-7.56-12.08-11.64-17.2-18.42-35.43-31.22-60.91-13.75-3.98,2.73-9.45,3.32-14.26,4.79-12.54,3.83-23.45,4.13-32.69-8.31-6.56-8.83-15.78-15.78-24.19-23.13-16.44-14.38-17.63-32.83-10.04-50.61,16.65-39.01-6.56-65.91-34.17-84.42-3.96-2.66-13.99.1-19.17,3.48-33.61,21.91-32.03,21.13-55.89-10.2-17.24-22.64-3.18-42.52-.58-63.7,1.48-12.06,4.94-24.59,2.95-36.13-1.61-9.35-8.58-19.36-16.15-25.28-2.74-2.14-14.09,6.74-21.53,10.54-1.45.74-3,1.27-7.74,3.26-2.15-8.28-4.21-16.19-7.02-27,16.72-59.5,41.27-116.36,73.1-169.33,1.11,4.16,3.45,8.95,7.01,14.76,3.73-15.05,6.27-25.3,9.65-38.96-.82.43-1.56.85-2.32,1.27,28.14-42.95,61.23-83.1,98.97-119.73,134.29-130.36,311.3-200.63,498.44-197.86Z"/></g><circle class="cls-4" cx="960" cy="961.3" r="695.82"/></g><path id="Frame" class="cls-9" d="M960,271.13c93.18,0,183.56,18.25,268.65,54.24,82.18,34.76,156,84.53,219.38,147.91,63.39,63.39,113.15,137.2,147.91,219.38,35.99,85.08,54.24,175.47,54.24,268.65s-18.25,183.56-54.24,268.65c-34.76,82.18-84.53,156-147.91,219.38-63.39,63.39-137.2,113.15-219.38,147.91-85.08,35.99-175.47,54.24-268.65,54.24s-183.56-18.25-268.65-54.24c-82.18-34.76-156-84.53-219.38-147.91-63.39-63.39-113.15-137.2-147.91-219.38-35.99-85.08-54.24-175.47-54.24-268.65s18.25-183.56,54.24-268.65c34.76-82.18,84.53-156,147.91-219.38,63.39-63.39,137.2-113.15,219.38-147.91,85.08-35.99,175.47-54.24,268.65-54.24M960,265.48c-384.29,0-695.82,311.53-695.82,695.82s311.53,695.82,695.82,695.82,695.82-311.53,695.82-695.82-311.53-695.82-695.82-695.82h0Z"/></g><g id="Golf_Clubs"><path class="cls-2" d="M1383.57,1320.01l46.08,28.17,72.26,48.44c11.84,9.72,14.84,7.15,21.88.54,32.31-52.35,73-90.45,118.3-123.39,9.39-4.63,16.92-2.58,23.53,2.75,28.38,24.64,43.93,53.9,45.5,88.29-3.12,11.68-10.44,22.58-20.74,32.92-38.69,23.18-80.22,41.99-126.11,54.08-15.92,6.58-33.99,4.51-54.88-8.91l-95.68-67.87-41.97-33.68c-1.35-.24-2.13-1.08-2.48-2.36l-2.66-1.98,1.42-2.16L510.82,708.3c-1.48.72-3.22.6-4.62-.37-27.92-19.27-261.69-180.64-292.26-201.74-2.63-1.8-4.39-4.74-4.83-8.03-1.47-11.28,3.95-21.13,15.53-29.74,0,0,.82-.28,1.86-.6,2.74-.91,5.68-.85,8.38.19.51.19.84.32.84.32,0,0,262.42,199.37,283.75,215.58.88.66,1.44,1.7,1.55,2.83l.2,2.2,857.88,629.05.98-1.49,2.77,2.07-.43.66c.41.17.81.46,1.16.77Z"/><path class="cls-2" d="M537.59,1319.24l-.43-.66,2.77-2.07.98,1.49,857.88-629.05.2-2.2c.11-1.13.67-2.18,1.55-2.83,21.33-16.21,283.75-215.58,283.75-215.58,0,0,.33-.13.84-.32,2.71-1.04,5.64-1.11,8.38-.19,1.04.32,1.86.6,1.86.6,11.57,8.62,16.99,18.46,15.53,29.74-.44,3.29-2.2,6.23-4.83,8.03-30.57,21.1-264.33,182.47-292.26,201.74-1.4.97-3.14,1.08-4.62.37l-857.2,626.54,1.42,2.16-2.66,1.98c-.34,1.28-1.12,2.12-2.48,2.36l-41.97,33.68-95.68,67.87c-20.89,13.42-38.96,15.49-54.88,8.91-45.89-12.09-87.42-30.89-126.11-54.08-10.3-10.34-17.62-21.24-20.74-32.92,1.57-34.39,17.13-63.65,45.5-88.29,6.61-5.33,14.14-7.38,23.53-2.75,45.3,32.94,85.99,71.04,118.3,123.39,7.04,6.61,10.04,9.18,21.88-.54l72.26-48.44,46.08-28.17c.35-.31.74-.6,1.16-.77Z"/></g><g id="Ribbon"><g id="Background-4"><rect class="cls-9" x="4.24" y="739.66" width="1911.53" height="443.29" rx="72" ry="72"/><path class="cls-5" d="M1843.76,743.89c37.37,0,67.76,30.4,67.76,67.76v299.29c0,37.37-30.4,67.76-67.76,67.76H76.24c-37.37,0-67.76-30.4-67.76-67.76v-299.29c0-37.37,30.4-67.76,67.76-67.76h1767.53M1843.76,735.42H76.24C34.13,735.42,0,769.55,0,811.66v299.29C0,1153.05,34.13,1187.19,76.24,1187.19h1767.53c42.1,0,76.24-34.13,76.24-76.24v-299.29c0-42.1-34.13-76.24-76.24-76.24h0Z"/></g><g id="South_Carolina"><path id="Palmetto_Tree" class="cls-8" d="M1433.96,780.6c10.38,9.15,16.33,22.35,16.33,36.23,0,26.64-21.49,48.23-48,48.23h0c-6.13-.04-12.2-1.25-17.88-3.59,9.63,14.42,25.78,23.09,43.07,23.12,28.7,0,51.96-23.37,51.96-52.21,0-26.31-19.5-48.5-45.48-51.79h0ZM1657.07,809.54c-.69.02-1.4.15-1.49.52-.18.73-3.53,4.24-4.06,6.44-.03.14-.14.49-.22.75-1.3,2.95-2.21,6.23-3.11,9.49-1.56,4.64-3.06,9.12-3.06,9.4-.4,1.16-.98,2.81-1.57,4.46-.77,2.06-1.44,3.87-2.1,5.63-.28.67-.47,1.12-.45.89.3-1.02.71-2.47,1.13-3.96.09-.3.13-.43.23-.77.62-1.47,1.24-3.68,1.68-6.05.41-1.52.72-2.69.72-2.78,0-.06-.11-1.16-.15-1.66.16-2.38.04-4.57-.55-6.03-.06-.65-.18-2.02-.18-2.02,0,0-1.44-.94-1.44-.57,0,.09-.12.41-.3.84-1.79,3.17-3.25,6.46-4.5,9.84-.84,1.88-1.59,3.59-1.59,3.81s-.45,2.16-.97,4.34c-.43,1.61-.82,3.24-1.18,4.87-.24.99-.67,2.74-.67,2.74l-.5,3.09c-.52,2.83-.99,5.67-1.44,8.51l-.51,1.79c-.18.34-.36.43-.55.33-.56-1.42-2.5-6.85-2.5-7.09,0-.02-.33-.65-.43-.85-.95-2.98-2.02-5.77-3.25-6.33-1.46-3.11-2.95-6.33-4.08-7.77-.31-.59-1.28-2.44-1.28-2.44l-.15,1.94c-.37.61-.53,2.23-.4,5.27l-.13,1.71c-.12.32-.3.29-.54.02l-1.76-3.39c-.6-1.31-1.19-2.61-1.63-3.13l-12.45-23.98c-.38,3.04-.04,6.18.67,9.29.14,1.63.27,2.93.35,2.93.07,0,.78,1.6,1.69,3.71,1.42,3.79,3.09,7.37,4.43,10.51.18.44.41.98.54,1.3.3.74.59,1.46.82,2.14-5.33-9.79-10.67-19.58-16-29.37l-1.74,2.09s.04.97.06,1.53c-.19,1.14-.12,2.3.13,3.47,0,.19.03.63.03.7,0,.07.23.56.55,1.24.78,2.14,2.01,4.28,3.23,6.37,1.03,1.99,2.06,3.98,3.11,5.97.02.04.04.09.05.13,2.86,5.42-4.72-8.52-6.17-11.01-.65-2.87-2.52-5.98-4.42-7.86-1.06-1.86-1.8-3.13-1.85-3.13-.25,0-3.01,2.06-3.01,2.06v1.87c-.1.78-.11,1.75,0,2.95v.67c0,.06.75,1.44,1.81,3.35,1.91,3.76,4.5,8.18,6.52,11.62,1.17,2.07,2.33,4.14,2.74,4.86.04.11.06.17.03.18l-17.12-28.08-3.48-1.8s-.11,1.01-.21,1.89c-.11.28-.15.62-.11,1.02-.09.81-.2,1.65-.2,1.75,0,.04,1.12,1.83,1.97,3.21,1.88,3.74,4.73,7.95,5.98,9.58.21.33.6.94.83,1.32,3.94,6.27,6.4,10.14,8.2,13,.92,1.46,1.63,2.61,1.89,3.07-3.36-4.95-6.72-9.9-10.09-14.85-1.03-.69-1.79-.82-2.33-.59l-.71-.18-.05,1.02c-.31.72-.34,1.76-.15,2.81l-.05.84.51.79c.29.7.66,1.31,1.11,1.72h0c1.68,2.73,3.45,5.4,5.22,8.07l6.07,9.37c1.46,2.36,2.87,4.75,4.16,7.22l3.35,7.31c-.77-.91-1.63-1.98-2.45-3.08-1-1.93-2.91-5.22-2.91-5.42-1.49-2.47-4.26-5.2-6.66-6.75-.77-.76-2.11-2.07-2.11-2.07,0,0-2.27-.03-2.27.23,0,.05.1.9.15,1.34-.29.7-.2,1.93.44,3.85.05.43.15,1.28.15,1.33,0,.22,2.96,3.31,3.88,4.27.1.39-.26.47-.93.35-.02,0-.02,0-.04,0-1.71-.31-5.2-1.75-7.76-2.38-1.41-.52-2.67-.98-2.67-.98,0,0-1,2.35-.75,2.61.13.13.88.72,1.63,1.3.76,1.75-.55,1.53-2.62.54-1.56-.9-3.58-2.04-6.07-3.43-1.75-1.05-3.35-2-4.29-2.4-.02-.01-.04-.02-.06-.03-.55-.31-2.14-1.2-2.14-1.2l-5.2-2.68c-2.69-1.47-5.39-2.91-8.15-4.21l-2.69-1.39-2.55-.81c-1.06-.38-2.14-.73-3.23-1.03l-.25,2.35s1.19.98,2.18,1.78c2.23,2.72,5.98,4.52,9.7,6.25,4.77,2.59,10.41,5.69,11.22,6.13.05.11-.36,0-.94-.16l-3.52-1.17c-1.44-.5-2.84-.99-3.71-1.24l-10.32-3.45c-3.72-1.3-7.44-2.59-11.19-3.74l-5.46-1.82h-2.52l.38.9c-.09.6.29,1.4.92,2.17l.46,1.08,1.11.39c1.08.79,2.32,1.32,3.31,1.16,7.97,2.79,15.93,5.58,23.9,8.36.26.96-.1,1.27-.85,1.21-.38-.31-.49-.42-.89-.73-.64-.5-3.29-1.07-5.48-1.44-2.64-.9-5.37-1.46-7.07-.18-2.33-.18-5.91-.09-8.38.42-1.17.06-3.4.17-3.4.17,0,0,.5,2.35.75,2.35.07,0,.43.15.89.36.7.51,1.79,1.08,3.4,1.73.05.05.91.05,2.05.04,2.16.01,4.63-.08,7.07-.18,3.6-.11,5.37-.18,7.58-.27,1.26-.02,2.34,0,3.02.07-.08.02-.14.04-.21.06-1.33.34-4.22,1.09-4.22,1.3,0,.26-.25,2.58,0,2.84.25.26,5,1.32,5.25,1.32.08,0,.6-.19,1.22-.42.7-.04,1.41-.14,2.09-.33-.04.06-.08.12-.11.18-.66.55-1.17.98-1.17,1.06,0,.26-.25,2.63,0,2.89.08.08.68.15,1.42.21.75.53,1.98.66,3.71.12.43-.02.77-.05.87-.1.09-.04.61-.42.88-.6.03-.01.05-.02.08-.04.02-.02.03-.03.05-.05.71-.49,1.43-.97,2.32-1.57.73-.11,1.37.21,1.98.74.43,1.22.96,2.68.96,2.83,0,.1,1.09.35,2.34.61,1.29,1.08,2.9,1.77,5.19,1.12,1.12.19,2.26.33,3.4.45,2.79.35,4.87.59,6.99.84,1.63.28,3.23.68,4.75,1.3l4.03,2.36c-1.53-.65-3.07-1.15-4.63-1.53-.19-.08-.48-.18-.51-.22-.25-.26-8.27-1.03-8.27-1.03l-2.88.24c-3.39.11-6.8.47-10.21.84l-10.13.83s0,0,0,0c-1.59.1-3.17.23-4.75.39l-3.38.28s-2.56.44-3.29.56c-4.27.62-8.52,1.38-12.76,2.18-4.69.8-9.93,1.69-10.02,1.69-.25,0-6.28,2.32-6.28,2.32,0,0,2.54,1.57,3.29,1.83.2.07,2.49-.06,5.59-.26,4.96-.11,11.12-.74,13.52-1,4.23-.33,10.08-.83,8.88-.66l-12.28,1.31c-2.94.26-5.89.51-8.77.94l-4.2.45s-.56.37-.76.49c-2.5.9-4.14,2.15-5.05,3.42-.71.84-1.72,2.36-1.72,2.55,0,.26.49,2.89,1.24,2.89.2,0,.85-.11,1.68-.27,1.51.51,3.77.27,6.58-1.28,2.53-.27,6-.98,9.55-1.82,1.69-.33,4-.79,4-.79,0,0,3.15-.93,6.29-1.85,2.65-.72,4.71-1.29,5.17-1.4-.28.09-.3.1-.64.21-2.49.76-4.97,1.54-7.46,2.34-4.33,1.35-7.04,2.19-8.84,2.75-1.64.48-3.29.94-4.95,1.36l-4.12.98s.02,3.15.53,3.15c.19,0,1.42.09,2.58.17,3.56,1.37,9.07-.71,14.04-2.63.12-.04.37-.13.44-.15.41-.11,3.63-1.19,6.64-2.21.03,0,.06-.02.09-.02.21-.07.42-.15.63-.22,2.92-.99,4.3-1.46,5.82-1.97.82-.25,1.35-.39,1.2-.25-1.53.73-8.27,3.97-11.44,5.37-3.82,1.44-7.89,2.86-10.47,4.81-.62.31-2.03.99-2.03.99,0,0-1.99,3.35-1.49,3.35.12,0,.74.08,1.15.13.31.06.63.09.96.1,1.15.14,2.28.28,2.42.28.09,0,1.21-.55,2.48-1.18,3.26-1.12,6.72-3.06,9.62-4.72,2.5-1.28,4.15-2.12,5.61-2.88.33-.08.57-.08.71.03,0,0,0,0,0,0l-4.54,3.64c-1.3.98-2.62,1.93-3.96,2.84l-5.15,3.32s-1,2.32-.75,2.32,3.73,1.03,3.73,1.03c0,0,.92-.39,1.59-.67,2.99-.85,6.89-3.63,10.17-5.95,2.32-1.51,4.55-2.95,4.55-2.95,0,0,5.07-3.29,8.18-5.32,1.91-1.12,3.85-2.19,5.62-3.08,2.06-.89,3.65-1.55,5.14-2.17.46-.13.86-.21,1.16-.22l-.04.03c-2.84,2-5.78,3.89-8.58,5.93l-3.21,2.22s-.82.9-1.07,1.17c-1.97,1.74-3.79,3.66-5.36,5.88-.02.02-.04.05-.06.07-2.07,1.81-4.11,3.64-6.14,5.5-2.06,1.74-4.05,3.45-4.16,3.7-.07.14-.93,1.05-2.11,2.25-2.41,2.35-4.78,4.75-7.1,7.2-1.17,1.2-2.03,2.09-2.1,2.23-.61,1.4-1.14,2.85-1.59,4.34-.73,2.03-1.42,4-1.42,4,0,0-.03,1.91-.05,2.67-.42,3.08-.49,6.21-.16,9.28,0,.61-.04,1.87-.04,2.06,0,1.3,1.77,6.27,2.02,6.27.18,0,1-3.79,1.52-6.26.25-.91.51-1.5.8-1.3.21.73.54,1.94,1.11,3.81.41,1.92.76,2.93,1.09,3.31.26.7.46,1.12.52.94.18-.57,1.83-5.28,2.81-7.79.4-.64.84-1.05,1.37-1.06.76.69,1.9,1.83,2.07,1.83.67-.3,1.26-.74,1.78-1.29.82-.71,1.63-1.54,1.76-2.06.02-.07.26-1.16.31-1.39,1.2-2.98,1.76-6.72,2.24-9.95.67-2.99,1.14-5.06,1.42-6.3.25-.41.54-.63.9-.58h0s.65,3.08.65,3.08c.25,1.61.49,3.35.93,4.41l.29,1.37s.35-.15.77-.37c.29-.02.63-.22,1.02-.62.59-.43,1.12-.98,1.22-1.62.4-1.22.6-3.13.78-5.09.36-2.35.68-4.41,1-6.19.29-.69.67-1.1,1.19-1.01.88,1.16,2.41,3.16,2.8,2.95,1.52-.16,2.56-1.28,3.29-2.83.28-.28.47-.49.47-.55,0-.03.23-1.2.29-1.52.51-1.77.8-3.76,1.06-5.51.4-2.02.59-3.02.79-4.04.33-.79.78-.87,1.53.19l1.15,2.1s0,0,0,0l.4.73s3.99-1.02,4.01-1.54c1.33-.62,2.63-1.4,3.71-2.1.22.23.16.56,2.12-1.37.08-.05.16-.1.19-.11-.39.42-.76.81-1.11,1.17-.56.53-1.28,1.21-2.35,2.22-2.37,1.03-4.02,2.89-5.02,5.02-.43.82-.88,1.86-1.4,3.29v2.86l.28.5c.12,1.07.38,2.07.79,2.94,0,0,0,0,0,0-1.78.44-3.44,1.57-4.75,2.98-2.68,1.35-2.73,3.93-2.7,4.59-.17.57-.26,1.13-.28,1.66-.26,1.23-.55,2.8-.21,2.8.09,0,.94.04,1.36.06,1.05.83,2.86,1.12,5.66.46-.12.12-.24.24-.37.35-.77.57-2.55,1.62-3.14,2.02-.2.14-1.02.58-2.11,1.15-2.54,1.24-5.26,2.46-7.27,3.84-.67.37-1.15.66-1.15.71,0,.05-.12.22-.29.44-.41.39-.75.8-1,1.23-.82,1-1.73,2.07-1.73,2.22,0,.26,2.76,1.29,3.01,1.03.09-.09,1.03-.5,2.13-.97,2.49-.85,4.76-2.09,4.3-1.33-.36.35-1.6,1.57-2.79,2.73-.05.05-.07.06-.12.11-1.55.86-3.9,3.28-5.65,5.58-1.36,1.36-2.39,2.41-2.39,2.48,0,.26-.25,3.38,0,3.38s3.26-1.83,3.76-2.09c.03-.02.4-.35.52-.45.04-.02.06-.03.1-.06.08-.08.29-.28.39-.37,1.53-1.34,4.16-3.77,6.77-6.22,2.93-2.46,4.87-3.55,1.58,1.34l-6.01,7.86c-.9,1.17-1.8,2.34-2.71,3.5-.52.61-2.13,2.48-2.13,2.7,0,.26.99,3.9,1.24,3.64.14-.15.96-1,1.77-1.89,1.55-.99,3.37-3.8,5.29-6.54,1.74-2.14,3.45-4.19,3.7-4.32.18-.1,1.13-.87,2.19-1.75,0,0,.01,0,.02,0,5.04-4.22,4.31-1.94,2.23,1.95-.83,1.3-1.64,2.57-1.64,2.69,0,.1-.62,1.31-1.33,2.67-.65,1.17-1.25,2.3-1.74,3.31-.32.61-.88,1.66-.94,1.77-.25.52-.28,5.7-.28,5.7,0,0,2.79.29,2.79-.23,0-.15.46-1.04,1.08-2.19,1.48-2.03,3.12-5.13,4.43-7.8.03-.06.22-.39.24-.42.17-.27.86-1.77,1.65-3.51.05-.1.13-.27.17-.35,1.11-1.7,2.04-4.16,2.92-6.74.26-.65.47-1.19.52-1.37.18-.76,1.98-5.52,2.92-8.23.59-1.22,1.22-2.15,1.91-2.58,0,0,0,.01,0,.02-.14,1.71.03,3.83.41,5.66,0,.05.01.16.01.21,0,1.3,2.02,5.7,2.02,4.93,0-.15.15-.58.36-1.1.66-.28,1.37-1.61,2.04-4.54.49-1.03,1.13-2.38,1.13-2.38,0,0,1.01-2.1,2.06-4.26,1.48-2.36,3.16-4.61,4.67-6.83,1.3-.84,2.73-1.72,2.73-2.03,0-.15.23-2.06.39-3.48.4-.96.72-1.93.91-2.92v1.35c-.11,1.52-.31,3.02-.61,4.5-.81,2.52-2.65,8.24-2.65,8.45,0,.17-1.51,3.78-2.69,6.4-2.09,4.02-4.58,8-5.81,10.7-.81,1.33-1.78,2.88-1.78,2.88l1.03-.56c1.26-.26,2.71-1.23,4.11-2.39.96-.62,2.01-1.33,2.38-1.71.3-.31,1.09-1.29,1.91-2.29,1.38-1.34,2.27-2.07,2.12-1.04-.65,1.82-1.77,4.5-1.77,4.68,0,.19-1.17,4.15-1.87,6.59-.91,2.48-1.88,5.01-2.35,7.19-.19.54-.32.93-.32.99,0,.26-.25,4.67.25,4.67.13,0,.47-.26.93-.66,1.62-.76,2.76-2.2,3.7-3.81.13-.16.35-.39.4-.48.35-.54,1.82-3.55,2.89-5.73.55-.77,1.16-1.34,1.9-1.57.59.55,1.24,1.18,1.24,1.34,0,.26,3.51-1.55,3.51-1.55,0,0-.36-2.69-.67-4.91.51-3.1.99-6.54,1.52-10.01.36-1.82,1.41-6.95,1.64-7.67.09-.28.29-2.1.5-4.14,0-.02,0-.04.01-.06.02-.23.03-.38.05-.6.23-2.26.35-3.51.49-4.91.09-.76.17-1.14.18-.59l-.08,3.68s0,.04,0,.08c0,.16,0,.33-.01.49l-.38,17.28c-.13,5.52-.27,11.03-.45,16.55-.34,8.83-4.32,108.35-4.32,108.35,0,0-3.76,13.77-4.26,14.03-.5.26-20.29,7.44-20.54,7.7-.25.26-6.77,3.92-6.77,4.18s-3.01,2.86-3.01,2.86c0,0,1.99,3.12,2.24,3.38.25.26,8.51,1.29,8.77,1.03-.08.25-1.49,2.61-1.49,2.61,0,0-5.78,3.38-5.78,3.64s-.5,3.63,0,4.15c.5.52,2.54,2.35,3.04,2.09s4.51-2.61,4.51-2.61l1.74,1.8s-.5,3.38-.25,3.64c.25.26,2.79,1.81,3.79,1.03,1-.78,4-3.37,5.25-4.15,1.25-.78,4.26-4.15,4.51-4.15s1.24,2.09,1.49,2.35c.25.26,3.29,1.8,3.79,1.8s4-.26,5.5-.26,5.03-.74,5.78-1c.75-.26,3.26-3.15,3.51-3.41.25-.26,3.98.8,4.23,1.06.25.26,2.01,3.38,3.26,3.89s4.26,1.03,4.26,1.03c0,0,1.02-1.02,1.02-2.58s-.5-4.7-.25-4.7,3.04.49,3.54.74c.5.26,3.98,1.86,4.48,2.38.5.52,3.26,1.81,3.51,1.03.25-.78,0-4.67.25-4.67s2.51,1.28,3.01,1.8c.5.52,3.26,2.09,3.51,2.35.25.26,5,2.32,5,1.8v-4.41c0-.26,1.77-.26,2.02,0,.25.26,2.76,1.8,3.26,1.8s.25-3.38.25-3.64-.5-4.41-.5-4.15,4.5,1.83,5.5,2.09c1,.26,5.78,1.55,5.78,1.03s-2.04-3.12-2.79-3.9c-.75-.78-6.24-4.92-7.49-5.7-6.75-3.23-14.3-10.31-21.57-10.6-1.5,0-4.26-4.18-4.51-4.95-.25-.78-1.52-8.02-1.77-8.02s-1.49-12.52-1.49-12.52l-.77-70.68-.65-17.22c.22-.84.2-1.9-.12-3.24l-.57-15.17c-.15-4.77-.31-9.54-.54-14.29l-.32-8.5-.22-.56c-1.09-2.78-2.56-6.51-2.38-6.22.58,1.34,4.87,11.17,7.33,16.92.79,2.03,1.5,4.08,2.09,6.16.51,2.21,1.14,4.87,1.17,5.16.01.08.02.16.04.24.02.48.49,5.31.49,5.31,1.11.27,2.01.07,2.7-.4l.78-.12.25-.99c.53-.88.79-2.01.79-3.14l.2-.79-.62-1.69s-.01-.03-.02-.05l-1.4-3.83c-.73-2.08-1.1-3.35.04-.61,0,0,0,.01,0,.02.26.62.59,1.43,1.01,2.47.02.05.05.09.07.13.87,2.05,1.55,3.55,1.68,3.55.23,0,.67-.42,1.16-.94.18-.11.34-.29.48-.53.56-.66,1.14-1.4,1.55-1.94.38,1.36,1.47,5.21,1.47,5.24,0,.18,2.12,1.45,2.3.72.03-.12.25-.88.35-1.25.53-.84.9-2.3,1.1-3.97.21-.76.52-1.85.52-1.9,0-.03-.26-1.09-.36-1.5-.06-2.69-.55-5.29-1.57-6.38-.25-.94-.45-1.66-.53-1.89-.01-.04-.16-.5-.2-.6-.88-3.3-.21-2.73.85-.52,1.16,3.27,2.23,6.31,2.77,7.97.18.79.32,1.55.4,2.26-.11,1.54-.11,5.45-.11,5.61,0,.08.73.08,1.53.06.31.19.62.15.92-.04.84-.05,1.61-.12,1.61-.2,0-.09.04-1.81.08-3.34.61-2.83.51-6.56-1.09-8.5-.58-1.6-1.29-3.69-2.04-5.96-1.59-4.99-3.21-10.19-4.45-14.18-.54-1.78-.91-3.06-1.04-3.52.01.03.13.36.14.4,1.37,3.97,2.79,7.93,4.21,11.88,2.52,7.1,3.98,11.28,5.16,14.67.65,1.93,1.28,3.87,1.9,5.82.33,1.25.75,2.75.87,2.75.09,0,1.23.54,2.33,1.07.88.81,1.7,1.97,2.46,3.1.32,1.24.69,2.52.88,2.62.35.18,3.01,1.62,3.01,1.43,0-.04.08-2.65.12-4.14.38-2.03.39-5.62.27-9.11.05-1.62.13-4.32.13-4.37,0-.07-.27-1.36-.51-2.48-.08-1.06-.16-1.92-.2-2.27.64,1.82,1.72,4.88,2.67,7.69.42,2.81.7,5.68,1.42,7.84.16,1.25.31,2.34.38,2.48.18.37,4.04,2.02,4.04,1.83,0-.15.46-2.46.7-3.63.44-.12,1.03.01,1.69.25l1.9,1.55s.7-.18,1.38-.39c.59.09,1.06-.01,1.32-.48.18-.09.31-.18.31-.25,0-.03-.09-.53-.1-.65.02-.65-.11-1.57-.45-2.84-.04-.54-.17-1.21-.35-1.93-.15-.81-.29-1.46-.34-1.57-.05-.11-.69-1.8-1.19-3.13-1.36-3.66-2.77-6.9-1.77-5.74.61.9,1.29,1.91,2.6,3.87.68,1.9,2.04,3.83,3.36,5.17.08.13.33.51.34.55.18.55,2.85,2.6,2.85,2.23,0-.1,0-.83.02-1.34.23-.33.25-1.01,0-2.08-.02-.81-.07-1.5-.2-1.57-.09-.05-.33-.42-.66-.98-.6-1.39-2.03-4.06-3.43-6.83-.77-1.84-2.55-6.09-3.51-8.39-.1-.86.18-1.24,1.04-.87h0s0,0,0,0c0,0,2.73,3.79,5.28,7.32,2.1,3.44,4.23,6.99,6.49,8.89.58.78,1.34,1.81,1.36,1.81.18,0,2.84.93,3.01.74.18-.18.34-2.78.17-2.78-.09,0-1.02-1.8-1.98-3.68-.49-1.05-1.01-2.08-1.56-3.11-.14-.28-.54-1.07-.56-1.12,0-.02-.46-.74-.51-.82-1.73-3.04-3.65-6.01-5.57-8.96-2.8-4.48-5.59-8.93-5.59-8.93,4.48,5.75,8.96,11.49,13.44,17.24,0,0,3.56,1.64,3.73,1.46.18-.18.73-2.21.55-2.58-.06-.12-.57-1.07-.99-1.84-1.07-2.44-3.31-5.67-5.1-8.29-2.55-3.96-5.91-9.21-7.96-12.37-1.59-2.54-3.17-5.08-4.71-7.66-1.19-2.05-1.83-3.16-2.95-5.11.98,1.52,2.03,2.96,3.16,4.32,1.23,1.87,2.28,3.45,2.51,3.68.16.16,1.37.84,3.01,1.72,2.87,2.24,6.13,4.01,9.87,5.17,0,0,0,0,.01,0,3.21,1.66,5.61,2.9,7.1,3.68,2.35,1.55,4.67,3.23,6.71,4.49.96.71,1.75,1.31,1.75,1.37,0,.18,3.36,1.32,3.18,1.32-.14,0-1.33-2.53-1.96-3.87.11-.58.9-.55,2.05-.21,1.31.48,2.69,1.03,2.95,1.3.53.55,4.75,2.01,5.28,2.38.25.17,1.08.22,1.89.23.25.04.46.03.64,0,.56-.01,1.21-.03,1.21-.03,0,0-1.61-3.48-1.96-3.67-.09-.05-.42-.31-.87-.68-4.57-3.82-3.07-2.8-.13-1.34l2.1,1.08c.06.03.38.11.67.18,2.12.84,4.29,1.38,5.43.54.6-.21,1.22-.44,1.31-.53.18-.18,0-2.95-.36-2.95-.06,0-.87-.43-1.93-1.01-1.9-1.95-5.51-3.49-9.03-5.04-4.04-2.27-6.83-3.86-8.06-4.56.54.12,1.37.29,2.51.51,1.55.54,3.16,1.1,3.24,1.1.08,0,1.4-.18,2.75-.35.85,0,1.56-.06,2.02-.26.31-.04,1.06-.14,1.06-.14l-1.24-2.55-1.1-.41c-8.8-3.3-17.59-6.6-26.39-9.9-.92-.74-2.49-1.75-4.07-2.76-2.2-1.49-3.32-2.24-4.54-3.05-.51-.41-.74-.7-.49-.78.98.26,2.35.61,4,1.01.76.22,1.67.43,2.64.62,1.4.32,2.55.58,2.66.58.05,0,1.45.09,1.91.12,2.78.33,5.57.5,7.66.46,2.38.13,4.42.23,4.42.17,0-.14-3.87-1.9-6.01-2.87-.6-.37-.88-.68-.63-.88,1.83-.1,9.53-.51,9.85-.51.07,0,2.19-.08,3.3-.11,3.3.09,6.61.22,9.67-.33.88-.03,2.96-.1,2.96-.1,0,0,.6-.61,1.23-1.22,1.79-.88,3.42-2.18,4.83-4.1l-.27-3.39c-.06-1.29-.12-2.57-.3-3.82l-.14-1.79-.51-.87c-.33-.86-.78-1.67-1.42-2.42-2.96-.97-5.94-1.7-8.94-2.26-1.25-.43-3.31-1.04-3.31-1.04,0,0-3.45-.07-5.42-.1-4.5-.36-9.04-.42-13.63-.3-4.54-.12-2.72-.93-.28-1.85,2.02-.31,4.26-.67,4.26-.67,0,0-.05-.59-.09-1.21.09-.12.08-.23-.02-.33-.02-.29-.05-.75-.05-.69,0,.05-1.37.1-3.43.16-1.79-.1-4.56.03-7.36.17-4.16.09-6.52.12-8.38.16-.92-.08-1.57-.23-1.78-.49,1.46-.77,5.57-2.93,5.72-2.93.05,0,.9-.49,1.99-1.13,3.12-1.49,6.26-3.05,8.21-4.7,1.33-.97,3.63-3.02,3.63-3.16,0-.18-3.75-1.67-3.93-1.49-.08.08-1.79.4-3.64.72-2.37.28-4.34.59-4.13,0,.44-.39.98-.86,1.62-1.35.65-.43,1.48-.93,2.61-1.58,1.2-.48,4.1-2.24,6.66-3.83,2.71-1.29,5.44-2.61,6.88-4.09,1.13-.66,2.24-1.35,2.24-1.44,0-.18-.88-1.85-1.41-1.66-.41.14-5.51,2.15-8.23,3.2-3.89,1.16-7.04,1.61-4.67-.39,2.09-1.46,4.91-3.38,4.91-3.38,0,0,1.48-1.06,2.37-1.7,2.11-1.34,4.3-2.74,5.87-4.17.68-.47,1.28-.89,1.32-.89.18,0,1.78-3.69,1.6-3.69-.03,0-.65.19-.9.26,0,0,0-.01,0-.02-.53.09-1.13.28-1.74.52-1.38.42-2.76.89-2.85,1.08-.04.09-.54.46-1.25.95-4.73,2.76-8.38,5.85-1.62-.31.11-.1.21-.19.32-.28,2.39-1.26,3.62-3.28,3.83-4.94.41-.98.83-2.01.83-2.01,0,0-1.94-1.3-1.94-1.12,0,.03-.28.17-.66.35-.98-.09-2.34.38-4.05,1.71-.96.39-2.2.9-2.2.9l-1.48,1.59c-1.49,1.33-2.82,2.89-4.15,4.46l-3.94,4.23s2.03-2.33,3.61-4.15c2.08-2.23,4.4-4.72,5.92-6.96.99-1.23,1.67-2.12,1.67-2.3,0-.73.33-4.21.33-4.21l-1.61.72h0l-3.92,1.75c-1.95.53-3.99.81-5.86,1.41-1.13.24-2.08.45-2.08.51,0,.02-.72.74-1,1.04-.55.43-1.07.94-1.52,1.58-3.21,3.24-7.2,7.21-10.25,10.25-2.42,2.23-4.9,4.38-7.48,6.4-3.26,2.29-7.39,5.16-7.39,5.16,0,0-1.33.89-2.34,1.56-.01,0-.02.01-.03.02,0,0,0,0,0,0-1.98,1.33-3.99,2.68-4.7,3.18-.7.31-1.41.58-2.11.79-.56.13-1.17.26-1.83.4-1.91.28-3.31-.06-3.17-1.39.64-.4,5.29-8.39,5.46-8.57.05-.05.83-1.76,1.83-3.97,1.87-3.58,3.62-7.24,4.95-11,.51-1.14,1.62-3.62,1.62-3.62l.09-2.41s0,0,0,0c.16-1.26.27-3.43.18-5.21l.06-1.74-.72-1.66s-.27.51-.28.54c-.44.17-1.05,1.2-1.9,3.6,0,.02-.03.06-.04.08-1.45,2.75-2.8,5.3-4.59,8.73-2.18,3.93-3.72,6.33-.94.03,1.17-2.27,2.63-5.12,4.17-8.12,1.74-2.91,3.48-5.82,4.55-8.92.13-.25.89-1.74.89-1.74l.07-2.39c.08-.79.11-1.6.07-2.43l.03-1.05s-1.25-1.67-1.6-1.12c-.02.03-.77,1.38-.87,1.56-1.34,1.21-2.75,4.36-4.13,7.39-1.51,2.71-1.81,3.23-3.5,6.27h0c-.68,1.13-1.58,2.78-2.52,4.53-1.37,2.46-2.97,5.34-3.36,6.04-1.05,1.73-1.93,2.92-2.36,2.77.68-1.33,2.8-5.32,5.39-10.16,1.97-3.54,3.95-7.08,5.78-10.69.77-1.41,1.36-2.45,1.39-2.45.18,0,1.62-3.68,1.8-4.41.92-2.94.88-5.33.3-6.87,0-.33.03-1.24.03-1.24l-1.96-1.8s-.66.84-1.03,1.3c-1.29.5-2.72,2.25-3.81,5.59-.77,1.71-2.31,5.15-3.7,8.27-1.97,4.36-3.25,7.15-4.17,9.18-.47.98-.78,1.6-.76,1.43.31-.83.58-1.57,1.05-2.8.21-.54,1.26-3.38,2.18-5.85,1.73-4,3.56-8.15,4.16-11.18.26-.71,1.13-3.02,1.13-3.02,0,0-1.08-2.54-1.08-2.18,0,.09-.29.54-.72,1.16-.88,1.03-1.72,2.24-2.51,3.56-.75,1.07-1.38,2.02-1.38,2.21,0,.08-.2.55-.46,1.15-1.18,2.31-2.22,4.6-3.19,6.73-1.17,2.42-1.92,3.94-2.37,4.84-.15.26-.3.51-.44.73.23-.64,1.44-3.96,2.86-7.79,1.17-2.65,2.36-5.35,3-7.81.05-.16.13-.51.22-1,.06-.33.13-.65.16-.96.29-1.77.62-3.99.62-4.1,0-.09-.67-.19-1.35-.17h0ZM1652.17,967.95l.45,1.25c.38,1.19.72,2.37.97,3.55-.1.13-.16.19-.37.47-.22-.78-.61-2.16-.84-2.99-.03-.76-.1-1.53-.22-2.28h0Z"/><g id="Text-2"><path class="cls-8" d="M264.54,919.16l-20.85,22.99c-7.32-12.73-14.77-19.1-22.36-19.1-3.69,0-6.71,1.24-9.06,3.71-2.35,2.47-3.52,5.26-3.52,8.36s.84,6.03,2.52,8.8c2.28,3.69,9.16,11.6,20.64,23.75,10.74,11.23,17.25,18.3,19.53,21.23,5.7,7.21,9.75,14.09,12.13,20.67,2.38,6.58,3.57,13.76,3.57,21.55,0,15.16-4.19,27.69-12.58,37.57-8.39,9.89-19.32,14.83-32.8,14.83-10.53,0-19.71-3.23-27.52-9.68-7.82-6.45-14.51-16.59-20.08-30.41l23.66-17.84c7.12,16.33,15.3,24.5,24.56,24.5,4.83,0,8.89-1.76,12.18-5.28,3.29-3.52,4.93-7.58,4.93-12.19,0-4.19-1.24-8.38-3.73-12.56-2.48-4.19-7.96-10.6-16.41-19.22-16.11-16.42-26.52-29.09-31.22-38.01-4.7-8.92-7.05-17.82-7.05-26.7,0-12.82,3.91-23.81,11.72-32.98,7.82-9.17,17.46-13.76,28.93-13.76,7.38,0,14.41,2.14,21.08,6.41,6.68,4.27,13.9,12.06,21.69,23.37Z"/><path class="cls-8" d="M334.11,938.64c10.32,0,20.02,3.23,29.1,9.68,9.08,6.45,16.17,15.2,21.26,26.26,5.09,11.06,7.64,22.99,7.64,35.81s-2.56,24.96-7.69,36.19c-5.13,11.23-12.11,20-20.96,26.32-8.85,6.32-18.6,9.49-29.25,9.49-15.68,0-29.07-6.97-40.16-20.92-11.09-13.95-16.64-30.89-16.64-50.83,0-21.36,6.27-39.16,18.8-53.4,10.99-12.4,23.62-18.6,37.9-18.6ZM334.56,970.93c-8.53,0-15.62,3.71-21.3,11.12-5.67,7.41-8.51,16.9-8.51,28.46s2.8,21.53,8.41,28.9c5.6,7.37,12.7,11.06,21.3,11.06s15.74-3.73,21.45-11.18c5.7-7.45,8.56-17.05,8.56-28.77s-2.8-21.25-8.41-28.59c-5.61-7.33-12.77-10.99-21.5-10.99Z"/><path class="cls-8" d="M406.19,942.15h27.74v65.84c0,12.82.71,21.72,2.12,26.7,1.41,4.98,3.68,8.86,6.8,11.62,3.12,2.76,6.97,4.15,11.54,4.15s8.45-1.36,11.64-4.08c3.19-2.72,5.56-6.72,7.1-12,1.14-3.94,1.71-12.35,1.71-25.26v-66.97h27.44v57.92c0,23.87-1.51,40.21-4.52,49-3.69,10.72-9.11,18.95-16.28,24.69-7.17,5.74-16.28,8.61-27.34,8.61-12,0-21.7-3.35-29.1-10.05-7.41-6.7-12.62-16.04-15.63-28.02-2.15-8.29-3.22-23.37-3.22-45.23v-56.92Z"/><path class="cls-8" d="M524.91,891.77h27.44v50.39h16.28v29.53h-16.28v107.18h-27.44v-107.18h-14.07v-29.53h14.07v-50.39Z"/><path class="cls-8" d="M575.18,889.38h27.24v66.59c5.36-5.78,10.76-10.11,16.18-13s10.92-4.33,16.49-4.33c10.86,0,20,4.69,27.44,14.07,6.37,8.13,9.55,20.06,9.55,35.81v90.34h-27.04v-59.93c0-15.83-.6-26.55-1.81-32.17-1.21-5.61-3.27-9.8-6.18-12.56s-6.52-4.15-10.81-4.15c-5.56,0-10.34,2.3-14.32,6.91-3.99,4.61-6.75,10.89-8.29,18.85-.8,4.11-1.21,13.49-1.21,28.15v54.91h-27.24v-189.48Z"/><path class="cls-8" d="M858.07,926.51l-19.68,23.46c-13.39-17.69-28.46-26.54-45.19-26.54-14.13,0-26.03,6.04-35.7,18.11-9.68,12.07-14.51,26.96-14.51,44.65,0,12.33,2.14,23.27,6.43,32.83,4.28,9.56,10.34,17.06,18.18,22.51,7.83,5.45,16.54,8.18,26.11,8.18,8.17,0,15.63-1.91,22.4-5.72,6.76-3.81,14.19-10.75,22.3-20.81l19.08,24.89c-10.92,13.33-21.24,22.57-30.96,27.72-9.72,5.15-20.81,7.73-33.27,7.73-22.99,0-41.8-9.11-56.44-27.33-14.64-18.22-21.96-41.57-21.96-70.05,0-18.43,3.33-34.8,10-49.13,6.67-14.32,16.22-25.84,28.65-34.55,12.43-8.71,25.82-13.07,40.16-13.07,12.2,0,23.94,3.22,35.23,9.66,11.29,6.44,21.02,15.6,29.2,27.47Z"/><path class="cls-8" d="M952.17,942.15h27.44v136.71h-27.44v-14.45c-5.36,6.37-10.73,10.95-16.11,13.76-5.39,2.81-11.23,4.21-17.52,4.21-14.12,0-26.34-6.85-36.65-20.54-10.31-13.7-15.46-30.72-15.46-51.08s4.99-38.41,14.96-51.89c9.97-13.49,22.09-20.23,36.35-20.23,6.56,0,12.72,1.55,18.47,4.65,5.76,3.1,11.08,7.75,15.97,13.95v-15.08ZM923.32,970.3c-8.48,0-15.53,3.75-21.14,11.25-5.61,7.5-8.41,17.11-8.41,28.84s2.85,21.53,8.56,29.15c5.71,7.62,12.74,11.43,21.09,11.43s15.76-3.75,21.44-11.25c5.68-7.5,8.52-17.32,8.52-29.46s-2.84-21.53-8.52-28.9c-5.68-7.37-12.85-11.06-21.54-11.06Z"/><path class="cls-8" d="M992.69,942.15h23.52v17.21c2.55-6.79,5.93-11.94,10.15-15.45,4.22-3.52,8.85-5.28,13.87-5.28,3.55,0,7.27,1.17,11.16,3.52l-8.54,29.53c-3.22-2.01-5.87-3.02-7.94-3.02-4.22,0-7.79,3.27-10.71,9.8-2.92,6.53-4.37,19.35-4.37,38.45l.1,6.66v55.29h-27.24v-136.71Z"/><path class="cls-8" d="M1108.09,938.64c10.32,0,20.02,3.23,29.1,9.68,9.08,6.45,16.17,15.2,21.26,26.26,5.09,11.06,7.64,22.99,7.64,35.81s-2.56,24.96-7.69,36.19c-5.13,11.23-12.11,20-20.96,26.32-8.85,6.32-18.6,9.49-29.25,9.49-15.68,0-29.07-6.97-40.16-20.92-11.09-13.95-16.64-30.89-16.64-50.83,0-21.36,6.27-39.16,18.8-53.4,10.99-12.4,23.62-18.6,37.9-18.6ZM1108.54,970.93c-8.53,0-15.62,3.71-21.3,11.12-5.67,7.41-8.51,16.9-8.51,28.46s2.8,21.53,8.41,28.9c5.6,7.37,12.7,11.06,21.3,11.06s15.74-3.73,21.45-11.18c5.7-7.45,8.56-17.05,8.56-28.77s-2.8-21.25-8.41-28.59c-5.61-7.33-12.77-10.99-21.5-10.99Z"/><path class="cls-8" d="M1177.26,889.38h27.44v189.48h-27.44v-189.48Z"/><path class="cls-8" d="M1232.1,885.86c4.81,0,8.94,2.18,12.38,6.53,3.44,4.36,5.16,9.63,5.16,15.83s-1.7,11.33-5.11,15.64c-3.41,4.32-7.48,6.47-12.23,6.47s-9.04-2.2-12.48-6.6c-3.44-4.4-5.16-9.74-5.16-16.02s1.7-11.18,5.11-15.45c3.41-4.27,7.52-6.41,12.33-6.41ZM1218.38,942.15h27.44v136.71h-27.44v-136.71Z"/><path class="cls-8" d="M1262.51,942.15h27.44v14.01c6.22-6.56,11.86-11.12,16.91-13.68,5.05-2.56,10.22-3.85,15.51-3.85,10.84,0,20.04,4.73,27.6,14.2,6.36,8.04,9.54,19.94,9.54,35.68v90.34h-27.14v-59.87c0-16.31-.59-27.15-1.76-32.5-1.17-5.36-3.21-9.43-6.12-12.24-2.91-2.8-6.5-4.21-10.78-4.21-5.55,0-10.31,2.32-14.29,6.97-3.98,4.65-6.74,11.07-8.27,19.27-.8,4.27-1.2,13.51-1.2,27.74v54.85h-27.44v-136.71Z"/><path class="cls-8" d="M1458.54,942.15h27.44v136.71h-27.44v-14.45c-5.36,6.37-10.73,10.95-16.11,13.76-5.39,2.81-11.23,4.21-17.52,4.21-14.12,0-26.34-6.85-36.65-20.54-10.31-13.7-15.46-30.72-15.46-51.08s4.99-38.41,14.96-51.89c9.97-13.49,22.09-20.23,36.35-20.23,6.56,0,12.72,1.55,18.47,4.65,5.76,3.1,11.08,7.75,15.97,13.95v-15.08ZM1429.69,970.3c-8.48,0-15.53,3.75-21.14,11.25-5.61,7.5-8.41,17.11-8.41,28.84s2.85,21.53,8.56,29.15c5.71,7.62,12.74,11.43,21.09,11.43s15.76-3.75,21.44-11.25c5.68-7.5,8.52-17.32,8.52-29.46s-2.84-21.53-8.52-28.9c-5.68-7.37-12.86-11.06-21.54-11.06Z"/></g></g></g></svg>